<?xml version="1.0" standalone="no"?>
<!DOCTYPE svg PUBLIC "-//W3C//DTD SVG 20010904//EN"
 "http://www.w3.org/TR/2001/REC-SVG-20010904/DTD/svg10.dtd">
<svg version="1.0" xmlns="http://www.w3.org/2000/svg"
 width="1280.000000pt" height="1280.000000pt" viewBox="0 0 1280.000000 1280.000000"
 preserveAspectRatio="xMidYMid meet">
<metadata>
Created by potrace 1.14, written by Peter Selinger 2001-2017
</metadata>
<g transform="translate(0.000000,1280.000000) scale(0.100000,-0.100000)"
fill="#000000" stroke="none">
<path d="M2220 9264 c-143 -24 -297 -78 -630 -222 -108 -46 -624 -283 -663
-304 -15 -8 1 -21 100 -83 193 -120 321 -245 389 -379 89 -174 406 -938 818
-1972 403 -1013 691 -1703 811 -1949 165 -335 462 -619 787 -753 131 -54 237
-75 378 -76 118 0 136 3 320 51 388 101 1191 336 1343 393 31 12 57 27 57 35
0 20 -60 61 -185 124 -63 33 -137 75 -163 94 -59 44 -151 139 -184 192 -49 79
-241 546 -744 1807 -532 1333 -831 2035 -999 2344 -137 251 -415 490 -707 608
-239 96 -499 128 -728 90z"/>
<path d="M5785 9274 c-146 -20 -193 -29 -280 -51 -178 -46 -592 -210 -975
-385 -107 -49 -207 -94 -222 -100 -16 -5 -28 -13 -28 -17 0 -4 46 -27 103 -51
56 -23 123 -56 148 -71 110 -69 219 -217 343 -465 161 -323 293 -641 791
-1914 605 -1546 720 -1810 883 -2030 72 -96 284 -314 387 -397 216 -175 461
-273 681 -273 130 0 368 57 909 217 499 147 812 254 822 281 10 25 -30 50
-137 85 -200 66 -293 138 -368 285 -214 418 -907 2090 -1364 3292 -157 413
-186 484 -251 620 -195 407 -437 671 -762 833 -115 57 -242 102 -347 122 -83
16 -277 27 -333 19z"/>
<path d="M9115 9270 c-241 -38 -652 -195 -1354 -518 l-64 -29 116 -62 c197
-105 278 -177 390 -346 128 -193 248 -470 521 -1193 561 -1485 1069 -2678
1268 -2976 63 -96 232 -274 342 -362 90 -72 270 -168 392 -210 107 -36 298
-44 459 -19 320 50 1365 354 1567 456 74 38 65 51 -44 60 -67 6 -96 15 -166
49 -142 71 -302 249 -401 447 -36 73 -233 557 -691 1703 -539 1349 -787 1936
-973 2305 -69 137 -73 143 -191 261 -276 275 -616 425 -996 439 -63 2 -142 0
-175 -5z"/>
<path d="M374 8016 c-199 -57 -319 -182 -360 -378 -53 -247 63 -448 299 -519
55 -17 87 -21 166 -17 89 3 105 7 174 41 91 45 162 119 221 228 34 63 40 84
44 151 4 75 3 82 -33 156 -31 62 -59 98 -144 183 -58 58 -127 118 -153 134
-59 33 -141 41 -214 21z"/>
<path d="M1019 6180 c-93 -27 -206 -73 -324 -132 -291 -145 -491 -347 -584
-588 -89 -231 -127 -605 -87 -870 40 -262 157 -483 357 -675 231 -222 487
-333 843 -366 255 -24 560 36 737 146 48 30 229 165 229 171 0 12 -616 1541
-690 1714 -163 380 -243 534 -308 591 -39 35 -76 36 -173 9z"/>
</g>
</svg>
